<svg id="Layer_1" data-name="Layer 1" xmlns="http://www.w3.org/2000/svg" viewBox="0 0 606.19 780.5"><defs><style>.cls-1{fill:#133261;}.cls-2{fill:#5fbdff;}.cls-3{fill:#0072d8;}.cls-4{fill:#fff68a;}</style></defs><title>colexo-logo-icon</title><path class="cls-1" d="M499.85,548.16c-173.75,98.54,0,254.84,0,254.84S673.6,646.7,499.85,548.16Z" transform="translate(-196.52 -22.5)"/><path class="cls-2" d="M499.62,578c-133.09,75.47,0,195.19,0,195.19S632.71,653.49,499.62,578Z" transform="translate(-196.52 -22.5)"/><path class="cls-3" d="M439.39,71.49,218.54,472.63c-25.22,45.82,7.92,101.9,60.22,101.9h441.7c52.3,0,85.44-56.08,60.22-101.9L559.83,71.49C533.7,24,465.51,24,439.39,71.49Z" transform="translate(-196.52 -22.5)"/><path class="cls-1" d="M439.39,71.49,427.65,65,206.8,466.17a81.33,81.33,0,0,0-4.16,70.53,83,83,0,0,0,29,36.5A80.43,80.43,0,0,0,253.45,584a82.72,82.72,0,0,0,25.31,3.91h441.7a82,82,0,0,0,72-121.76L571.57,65a81.48,81.48,0,0,0-31.3-31.89,83,83,0,0,0-81.32,0,80.28,80.28,0,0,0-17.47,13.34A83.36,83.36,0,0,0,427.65,65l11.74,6.46L451.13,78a56.43,56.43,0,0,1,9.38-12.59,53.68,53.68,0,0,1,18.13-12,56.3,56.3,0,0,1,48.42,3.12,54,54,0,0,1,11.65,8.9A56.43,56.43,0,0,1,548.09,78L768.94,479.1a54.5,54.5,0,0,1,2.83,47.46,56.25,56.25,0,0,1-19.64,24.71,53.87,53.87,0,0,1-14.54,7.23,56.29,56.29,0,0,1-17.13,2.63H278.76a55.56,55.56,0,0,1-55.44-55.42,54.84,54.84,0,0,1,7-26.61L451.13,78Z" transform="translate(-196.52 -22.5)"/><circle class="cls-2" cx="498.83" cy="372.87" r="92.47" transform="translate(-314.07 439.44) rotate(-45)"/><path class="cls-1" d="M591.3,372.87H577.89a79.07,79.07,0,1,1-13.49-44.2,78.78,78.78,0,0,1,13.49,44.2H604.7a105.92,105.92,0,1,0-18.09,59.2,105.47,105.47,0,0,0,18.09-59.2Z" transform="translate(-196.52 -22.5)"/><path class="cls-1" d="M187,540.1h231a20.56,20.56,0,0,1,20.56,20.56v4.84a20.55,20.55,0,0,1-20.55,20.55H187a20.56,20.56,0,0,1-20.56-20.56v-4.84A20.55,20.55,0,0,1,187,540.1Z"/><path class="cls-4" d="M452,411.26a63.46,63.46,0,0,1,5.65-81.32,61.81,61.81,0,0,1,19.83-13.8,63.93,63.93,0,0,1,25.17-5.25,5.74,5.74,0,1,0-.08-11.48,75.36,75.36,0,0,0-29.68,6.19A74.86,74.86,0,0,0,442.69,418a5.74,5.74,0,1,0,9.29-6.76Z" transform="translate(-196.52 -22.5)"/><path class="cls-4" d="M486.35,62.16a40.57,40.57,0,0,0-10.18,4.48,45,45,0,0,0-8.65,6.73,41.71,41.71,0,0,0-7.89,10.94l5.13,2.57-5-2.77L249.12,467v0c0,.1-4.08,7.35-8.16,16.84a139.85,139.85,0,0,0-5.67,15.39,76.13,76.13,0,0,0-1.94,8,43.32,43.32,0,0,0-.77,7.76,24.8,24.8,0,0,0,.68,6,5.74,5.74,0,1,0,11.14-2.79,12.84,12.84,0,0,1-.33-3.22,32.25,32.25,0,0,1,.58-5.7,79.81,79.81,0,0,1,3.41-12.12,171.57,171.57,0,0,1,7.26-17.06c1.11-2.29,2.08-4.18,2.77-5.49l.8-1.51c.1-.17.17-.3.21-.38l.05-.09v0h0l210.67-383,0-.1a30.53,30.53,0,0,1,5.75-8A33.69,33.69,0,0,1,485,74.94a29.22,29.22,0,0,1,3.18-1.32l.82-.27.17,0h0l-.78-3,.75,3h0l-.78-3,.75,3a5.75,5.75,0,0,0-2.78-11.15Z" transform="translate(-196.52 -22.5)"/><path class="cls-4" d="M461.84,616.85a104.1,104.1,0,0,0-12.06,44.27c0,1.3-.08,2.59-.08,3.86a101,101,0,0,0,5.46,32.56,121.74,121.74,0,0,0,19.31,35.27,133.75,133.75,0,0,0,9.35,10.77c2.67,2.77,4.8,4.71,5.92,5.72a5,5,0,0,0,6.72-7.49,108.23,108.23,0,0,1-8-8,120.18,120.18,0,0,1-18.55-27A93.82,93.82,0,0,1,459.77,665c0-1.14,0-2.3.06-3.47a94.1,94.1,0,0,1,10.92-40,5,5,0,0,0-8.91-4.68Z" transform="translate(-196.52 -22.5)"/></svg>