<svg width="36" height="37" viewBox="0 0 36 37" fill="none" xmlns="http://www.w3.org/2000/svg">
<path d="M6.42358 5.73675C6.51698 5.73675 6.61758 5.70803 6.69661 5.64341C6.96965 5.42801 7.24987 5.21261 7.53728 5.01158C7.73128 4.87516 7.78158 4.6095 7.64506 4.40847C7.50854 4.21461 7.24269 4.16435 7.0415 4.30077C6.73973 4.50899 6.44513 4.73874 6.15772 4.9685C5.97091 5.11928 5.94217 5.39211 6.09306 5.57161C6.1721 5.68649 6.29424 5.73675 6.42358 5.73675V5.73675Z" fill="black"/>
<path d="M1.28626 12.5362C1.33656 12.5577 1.38686 12.5649 1.43715 12.5649C1.6096 12.5649 1.77486 12.4572 1.83952 12.2849C2.6299 10.2099 3.8442 8.3431 5.44649 6.74917C5.61894 6.58403 5.61894 6.3112 5.44649 6.13888C5.28124 5.96656 5.0082 5.96656 4.83575 6.13888C3.14723 7.81897 1.86108 9.78626 1.0276 11.9761C0.955744 12.2059 1.06352 12.45 1.28626 12.5362V12.5362Z" fill="black"/>
<path d="M30.7887 25.6896C30.5875 25.5676 30.3216 25.6322 30.1995 25.8404C29.9552 26.2425 29.6965 26.6446 29.4163 27.0251C29.2726 27.2189 29.3157 27.4846 29.5097 27.6282C29.5887 27.6856 29.6749 27.7144 29.7612 27.7144C29.8977 27.7144 30.027 27.6497 30.1132 27.5349C30.4078 27.1328 30.6881 26.7092 30.9395 26.2856C31.0617 26.0702 30.997 25.8117 30.7887 25.6896Z" fill="black"/>
<path d="M32.5993 22.4803C32.8436 21.6474 33.0232 20.7858 33.131 19.917C33.2172 19.2349 33.2603 18.5313 33.2603 17.842C33.2603 17.6051 33.0663 17.4113 32.8292 17.4113C32.5921 17.4113 32.3981 17.6051 32.3981 17.842C32.3981 18.5026 32.355 19.1631 32.2759 19.8093C32.1754 20.6278 32.0029 21.4463 31.773 22.2361C31.6293 22.7172 31.464 23.1982 31.2772 23.6649C31.1622 23.9521 31.0401 24.2321 30.9036 24.5122C30.803 24.7276 30.8964 24.986 31.1119 25.0865C31.1694 25.1153 31.2341 25.1296 31.2988 25.1296C31.4568 25.1296 31.6149 25.0363 31.6868 24.8855C31.8233 24.5911 31.9598 24.2896 32.0819 23.988C32.2759 23.4926 32.4484 22.99 32.5993 22.4803V22.4803Z" fill="black"/>
<path d="M8.90246 4.20738C9.17549 4.20738 9.39823 3.9848 9.39823 3.71196C9.39823 3.43913 9.17549 3.21655 8.90246 3.21655C8.62942 3.21655 8.40668 3.43913 8.40668 3.71196C8.40668 3.9848 8.62942 4.20738 8.90246 4.20738Z" fill="black"/>
<path d="M28.5756 28.1093C28.3026 28.1093 28.0798 28.3318 28.0798 28.6047C28.0798 28.8775 28.3026 29.1001 28.5756 29.1001C28.8486 29.1001 29.0714 28.8775 29.0714 28.6047C29.0714 28.3318 28.8486 28.1093 28.5756 28.1093Z" fill="black"/>
<path d="M30.7239 16.1189C30.3216 15.7527 30.221 15.1568 30.4653 14.6829C33.7992 11.8756 35.7608 7.61073 35.5452 3.05151C35.5308 2.81457 35.3368 2.6279 35.0925 2.64226C31.8808 2.79303 28.8917 3.97771 26.4344 6.07424C26.1829 6.28964 25.9314 6.51939 25.6943 6.74915C23.1364 4.67416 19.9246 3.53256 16.605 3.53256C8.67258 3.53256 2.22027 9.94419 2.22027 17.8277C2.22027 19.7304 2.5939 21.5756 3.29805 23.2772C0.344934 27.5062 -0.610697 30.371 0.373675 32.0367C0.93412 32.9773 2.10531 33.4655 3.79383 33.4655C4.17464 33.4655 4.5842 33.4439 5.01531 33.3937C6.25116 33.2501 7.50139 32.9126 8.73006 32.3885C9.64258 32.0008 10.5048 31.5772 11.3311 31.1392C13.0124 31.7998 14.7872 32.1372 16.6194 32.1372C20.2982 32.1372 23.7974 30.7587 26.4775 28.2529C29.1073 25.7902 30.6952 22.4874 30.9682 18.919C31.6221 18.079 31.5287 16.8512 30.7239 16.1189ZM34.6974 3.53256C34.7045 4.23619 34.6614 4.93264 34.568 5.61473C33.792 5.19111 33.1238 4.588 32.628 3.85566C33.3034 3.6977 33.9932 3.59 34.6974 3.53256ZM27.002 6.73479C28.4175 5.52139 30.027 4.63826 31.7586 4.09977C32.3909 5.13367 33.3178 5.97372 34.4099 6.50503C33.4399 11.093 30.1132 14.9558 25.5219 16.4922L22.619 13.85C23.2873 11.1073 24.8321 8.5872 27.002 6.73479ZM21.8215 15.9322L23.2298 15.566L23.8477 16.1261L23.5675 17.519L21.8215 15.9322ZM22.0945 18.2154C22.0945 18.2657 22.0945 18.3231 22.0801 18.3734C22.0299 18.596 21.8502 18.7611 21.6275 18.8042L20.909 18.9262L20.9664 18.2011C20.9808 17.9713 21.1461 17.7703 21.3688 17.7056C21.4119 17.6913 21.4622 17.6841 21.5053 17.6841H21.5341C21.6778 17.6841 21.8071 17.7344 21.9149 17.8349C22.0227 17.9282 22.0873 18.0646 22.0945 18.2154V18.2154ZM21.9508 13.0172C21.2107 13.7136 20.0324 13.7352 19.2636 13.0459L17.9487 11.8612L20.2407 9.38416C20.4563 9.14723 20.7509 9.01081 21.0742 8.98927C21.3976 8.97491 21.7065 9.08261 21.9436 9.29801C22.3316 9.64982 22.8202 9.82932 23.316 9.82932C22.734 10.8345 22.2741 11.9043 21.9508 13.0172V13.0172ZM16.6122 4.40851C19.709 4.40851 22.7053 5.46395 25.1051 7.38816C24.7027 7.83331 24.3363 8.3 23.9914 8.78823C23.5387 9.08261 22.928 9.03953 22.5256 8.67336C22.1161 8.3 21.5916 8.11333 21.0383 8.13487C20.485 8.16358 19.9821 8.40052 19.6084 8.80259L17.0218 11.6027C16.9427 11.6889 16.8996 11.7966 16.9068 11.9115C16.914 12.0264 16.9643 12.1341 17.0505 12.213L18.6959 13.6849C19.2348 14.1731 19.9174 14.4101 20.6 14.4101C20.9952 14.4101 21.3904 14.3311 21.7568 14.166L22.4753 14.8768L21.2754 15.1927C21.1604 15.2214 21.0527 15.2645 20.9521 15.3147C20.7365 15.4224 20.5497 15.5948 20.406 15.7886C19.6947 16.7364 18.351 18.4954 16.7056 20.4268L15.7931 19.1919C15.2901 18.4954 14.5141 18.0934 13.7166 18.1077L12.2436 17.2318C11.6832 16.8943 10.979 16.88 10.4042 17.1887L9.62102 17.6051C9.11087 17.878 8.47139 17.7056 8.16243 17.2246L7.4008 16.0327C7.14213 15.6235 7.14931 15.1065 7.42235 14.7045C7.73131 14.2593 8.25583 14.0224 8.79472 14.087L9.93717 14.2306C10.5264 14.3024 11.094 14.0295 11.3814 13.5341C11.6616 13.0603 12.1933 12.8018 12.7394 12.8664L13.2352 12.931C13.7381 12.9956 14.2483 12.7874 14.5573 12.3854L14.9955 11.8181C15.5057 11.1576 15.5344 10.2529 15.053 9.56366L14.1046 8.20666C13.7094 7.63945 13.1777 7.15122 12.5813 6.80659C12.452 6.72761 12.3227 6.64863 12.2077 6.55529L10.9718 5.62909C12.6891 4.84648 14.6004 4.40851 16.6122 4.40851V4.40851ZM10.1024 6.06706L11.6904 7.25174C11.8341 7.35944 11.9921 7.45996 12.1502 7.55329C12.646 7.84049 13.0771 8.23538 13.4004 8.70208L14.3489 10.0591C14.6147 10.4324 14.6004 10.935 14.3201 11.294L13.8818 11.8612C13.7597 12.0192 13.5513 12.1053 13.3501 12.0838L12.8544 12.0192C11.9634 11.9043 11.094 12.3351 10.6413 13.1033C10.5264 13.2972 10.2892 13.4121 10.0521 13.3762L8.90969 13.2326C8.04746 13.1249 7.2068 13.4982 6.7182 14.2162C6.25116 14.8983 6.23679 15.7886 6.68228 16.4922L7.44391 17.6841C7.98998 18.5457 9.13243 18.8401 10.0378 18.359L10.8209 17.9426C11.1299 17.7774 11.5107 17.7846 11.8197 17.9641L13.307 18.8472C13.4364 18.9262 13.5872 18.9621 13.7381 18.9621C14.2555 18.9478 14.7728 19.2206 15.1105 19.6945L16.1524 21.0874C15.9368 21.3387 15.7069 21.59 15.4841 21.8413C14.2267 23.2342 13.0555 24.4332 11.9634 25.424L10.1743 23.0547C10.0593 22.9111 9.98028 22.7459 9.92998 22.5664L9.39828 20.6566C9.16835 19.8381 8.5145 19.1847 7.6882 18.9621L7.57324 18.9334C7.40798 18.8903 7.24991 18.8042 7.12776 18.6821L6.1362 17.7559C6.00687 17.6338 5.89909 17.5046 5.81287 17.3538C5.28116 16.4492 4.26805 15.9466 3.24057 16.0615C3.77946 11.7607 6.42361 8.08461 10.1024 6.06706V6.06706ZM3.08968 17.8421C3.08968 17.5477 3.10405 17.2533 3.11842 16.9589L3.16153 16.9518C3.90161 16.8082 4.65605 17.1456 5.04405 17.799C5.17338 18.0216 5.33146 18.2226 5.52546 18.3949L6.51702 19.3211C6.74694 19.5365 7.02717 19.6873 7.32894 19.7735L7.44391 19.8022C7.97561 19.9458 8.39954 20.3694 8.55043 20.8935L9.08213 22.8034C9.16117 23.0834 9.2905 23.349 9.47013 23.586L11.2808 26.0199C10.1168 27.0251 9.05339 27.779 8.10495 28.2744C4.91472 25.7112 3.08968 21.9202 3.08968 17.8421V17.8421ZM3.78664 24.3327C4.62013 25.9625 5.77694 27.4344 7.21398 28.6621C6.04279 29.0929 3.90161 29.6673 3.10405 28.8416C2.47175 28.1955 2.71605 26.6015 3.78664 24.3327ZM8.39235 31.5987C7.24272 32.0869 6.07153 32.4029 4.9219 32.5393C4.02375 32.6398 3.25494 32.6326 2.62983 32.5106C1.89694 32.367 1.38679 32.0582 1.11375 31.6059C0.718564 30.9382 0.646712 29.6458 1.94005 27.14C1.79634 28.1667 1.97597 28.935 2.48612 29.4591C2.97472 29.9545 3.67886 30.1268 4.4405 30.1268C6.19368 30.1268 8.20554 29.1935 8.23428 29.1791C10.3611 28.138 13.0052 25.862 16.0949 22.4228C18.2792 19.996 20.1258 17.5979 21.0311 16.3845L21.5125 16.8225C21.4981 16.8225 21.4766 16.8225 21.4622 16.8225C21.3401 16.8297 21.2251 16.8512 21.1101 16.8871C20.5425 17.0595 20.1473 17.5549 20.1042 18.1436L20.0036 19.4216C19.9964 19.5509 20.0467 19.6873 20.1401 19.7735C20.2192 19.8453 20.327 19.8883 20.4276 19.8883C20.4491 19.8883 20.4778 19.8883 20.4994 19.8811L21.764 19.6658C22.3316 19.5652 22.7843 19.1416 22.9136 18.5816C22.9424 18.4524 22.9567 18.3231 22.9496 18.1867C22.9496 18.1723 22.9496 18.1508 22.9424 18.1364L23.2513 18.4236C21.57 21.3458 16.9787 27.937 8.39235 31.5987V31.5987ZM25.8811 27.6282C23.3663 29.9832 20.0755 31.2756 16.6122 31.2756C15.1393 31.2756 13.695 31.0459 12.3155 30.5864C18.9618 26.6805 22.6334 21.2453 24.0776 18.718V18.7108C24.1998 18.5313 24.286 18.3303 24.3219 18.1221L24.5806 16.8082L25.3063 17.3969C24.9542 18.4308 25.2201 19.6227 26.0679 20.4125L27.6918 21.9059C27.7708 21.9777 27.8786 22.0208 27.9864 22.0208H28.0079C28.1229 22.0136 28.2307 21.9633 28.3097 21.8772L29.9479 20.0535C29.4737 22.9398 28.0582 25.5892 25.8811 27.6282V27.6282ZM30.221 18.4595L27.9648 20.9725L26.6643 19.7735C25.8955 19.0626 25.8165 17.8708 26.4703 17.0666C27.5553 16.643 28.5612 16.0974 29.4881 15.444C29.5384 15.9394 29.7611 16.4133 30.1491 16.7651C30.3862 16.9805 30.5228 17.2749 30.5443 17.5979C30.5515 17.9139 30.4365 18.2226 30.221 18.4595V18.4595Z" fill="black"/>
<path d="M24.1422 34.0973C23.826 34.0973 23.5674 34.3558 23.5674 34.6717C23.5674 34.9876 23.826 35.2461 24.1422 35.2461C24.4583 35.2461 24.717 34.9876 24.717 34.6717C24.717 34.3558 24.4583 34.0973 24.1422 34.0973Z" fill="black"/>
<path d="M25.0117 32.0007C24.5734 32.0007 24.2214 32.3525 24.2214 32.7905C24.2214 33.2285 24.5734 33.5803 25.0117 33.5803C25.45 33.5803 25.8021 33.2285 25.8021 32.7905C25.8021 32.3525 25.45 32.0007 25.0117 32.0007ZM25.0117 32.8623C24.9758 32.8623 24.9399 32.8336 24.9399 32.7905C24.9399 32.7474 24.9686 32.7187 25.0117 32.7187C25.0549 32.7187 25.0836 32.7474 25.0836 32.7905C25.0836 32.8336 25.0477 32.8623 25.0117 32.8623Z" fill="black"/>
<path d="M2.31365 3.61155C2.62979 3.61155 2.88846 3.35307 2.88846 3.03716C2.88846 2.72124 2.62979 2.46277 2.31365 2.46277C1.9975 2.46277 1.73883 2.72124 1.73883 3.03716C1.73883 3.35307 1.9975 3.61155 2.31365 3.61155Z" fill="black"/>
<path d="M3.18313 1.94603C3.62143 1.94603 3.9735 1.59421 3.9735 1.15624C3.9735 0.718269 3.62143 0.366455 3.18313 0.366455C2.74484 0.366455 2.39276 0.718269 2.39276 1.15624C2.39276 1.59421 2.74484 1.94603 3.18313 1.94603ZM3.18313 1.08444C3.21906 1.08444 3.25498 1.11316 3.25498 1.15624C3.25498 1.19932 3.22624 1.22804 3.18313 1.22804C3.14721 1.22804 3.11128 1.19932 3.11128 1.15624C3.11128 1.11316 3.14721 1.08444 3.18313 1.08444Z" fill="black"/>
<path d="M10.4975 1.92421C10.8784 2.05345 11.1801 2.355 11.3095 2.73553C11.3669 2.91503 11.5322 3.02991 11.719 3.02991C11.9058 3.02991 12.0711 2.90785 12.1286 2.73553C12.2579 2.355 12.5597 2.04627 12.9405 1.92421C13.1129 1.86677 13.2351 1.70163 13.2351 1.51495C13.2351 1.32828 13.1201 1.16314 12.9405 1.1057C12.5597 0.976464 12.2579 0.674909 12.1286 0.294375C12.0711 0.114878 11.9058 0 11.719 0C11.5322 0 11.3669 0.122058 11.3095 0.294375C11.1801 0.674909 10.8784 0.983644 10.4975 1.1057C10.3251 1.16314 10.2029 1.32828 10.2029 1.51495C10.2029 1.70163 10.3251 1.86677 10.4975 1.92421ZM11.719 1.2852C11.7909 1.36418 11.8699 1.44316 11.9489 1.51495C11.8699 1.58675 11.7909 1.66573 11.719 1.74471C11.6472 1.66573 11.5681 1.58675 11.4891 1.51495C11.5681 1.44316 11.6472 1.37136 11.719 1.2852Z" fill="black"/>
<path d="M16.483 34.1188C16.1022 33.9895 15.8004 33.688 15.6711 33.3074C15.6136 33.1279 15.4483 33.0131 15.2615 33.0131C15.0747 33.0131 14.9094 33.1351 14.8519 33.3074C14.7226 33.688 14.4208 33.9967 14.04 34.1188C13.8676 34.1762 13.7454 34.3413 13.7454 34.528C13.7454 34.7147 13.8604 34.8798 14.04 34.9373C14.4208 35.0665 14.7226 35.3681 14.8519 35.7486C14.9094 35.9281 15.0747 36.043 15.2615 36.043C15.4483 36.043 15.6136 35.9209 15.6711 35.7486C15.8004 35.3681 16.1022 35.0593 16.483 34.9373C16.6554 34.8798 16.7776 34.7147 16.7776 34.528C16.7776 34.3413 16.6554 34.1762 16.483 34.1188ZM15.2615 34.7578C15.1896 34.6788 15.1106 34.5998 15.0316 34.528C15.1106 34.4562 15.1896 34.3772 15.2615 34.2983C15.3334 34.3772 15.4124 34.4562 15.4914 34.528C15.4052 34.5998 15.3334 34.6716 15.2615 34.7578Z" fill="black"/>
<path d="M34.6255 30.3638C34.2447 30.2345 33.9429 29.933 33.8136 29.5524C33.7561 29.3729 33.5909 29.2581 33.404 29.2581C33.2172 29.2581 33.052 29.3801 32.9945 29.5524C32.8652 29.933 32.5634 30.2417 32.1826 30.3638C32.0101 30.4212 31.888 30.5863 31.888 30.773C31.888 30.9597 32.0101 31.1248 32.1826 31.1823C32.5634 31.3115 32.8652 31.6131 32.9945 31.9936C33.052 32.1731 33.2172 32.288 33.404 32.288C33.5909 32.288 33.7561 32.1659 33.8136 31.9936C33.9429 31.6131 34.2447 31.3043 34.6255 31.1823C34.798 31.1248 34.9201 30.9597 34.9201 30.773C34.9201 30.5863 34.798 30.4212 34.6255 30.3638ZM33.404 31.0028C33.3322 30.9238 33.2532 30.8448 33.1741 30.773C33.2532 30.7012 33.3322 30.6222 33.404 30.5433C33.4759 30.6222 33.5549 30.7012 33.634 30.773C33.5477 30.8376 33.4759 30.9166 33.404 31.0028Z" fill="black"/>
<path d="M13.5514 26.9604C13.4867 27.0106 13.4149 27.0681 13.3502 27.1183C13.1634 27.2619 13.1275 27.5347 13.2784 27.7214C13.3646 27.8291 13.4867 27.8866 13.6161 27.8866C13.7095 27.8866 13.8029 27.8578 13.8819 27.7932C13.9538 27.7358 14.0184 27.6855 14.0903 27.6281C14.2771 27.4773 14.3059 27.2117 14.155 27.025C14.0113 26.8455 13.7382 26.8096 13.5514 26.9604V26.9604Z" fill="black"/>
<path d="M15.5415 25.2372C15.1966 25.5603 14.8374 25.8834 14.4781 26.1921C14.2985 26.3501 14.2769 26.6229 14.435 26.8024C14.5212 26.9029 14.6434 26.9532 14.7583 26.9532C14.8589 26.9532 14.9595 26.9173 15.0386 26.8455C15.405 26.5296 15.7715 26.1993 16.1307 25.8618C16.3032 25.6967 16.3103 25.4238 16.1451 25.2515C15.987 25.0792 15.714 25.072 15.5415 25.2372V25.2372Z" fill="black"/>
<path d="M19.0193 22.0782C18.8325 21.9274 18.5666 21.9562 18.4157 22.1428C17.7906 22.9111 17.1224 23.6578 16.4398 24.3542C16.2745 24.5266 16.2745 24.7994 16.447 24.9645C16.5332 25.0435 16.641 25.0866 16.7488 25.0866C16.8637 25.0866 16.9715 25.0435 17.0577 24.9574C17.7619 24.2394 18.4445 23.4711 19.084 22.6813C19.2348 22.4947 19.2061 22.229 19.0193 22.0782V22.0782Z" fill="black"/>
<path d="M28.9922 11.9545C30.185 11.9545 31.1478 10.9853 31.1478 9.80057C31.1478 8.61589 30.1778 7.64661 28.9922 7.64661C27.8067 7.64661 26.8367 8.61589 26.8367 9.80057C26.8367 10.9853 27.7995 11.9545 28.9922 11.9545ZM28.9922 8.50819C29.7036 8.50819 30.2856 9.08976 30.2856 9.80057C30.2856 10.5114 29.7036 11.0929 28.9922 11.0929C28.2809 11.0929 27.6989 10.5114 27.6989 9.80057C27.6989 9.08976 28.2737 8.50819 28.9922 8.50819Z" fill="black"/>
</svg>
